<svg width="148" height="75" viewBox="0 0 148 75" fill="none" xmlns="http://www.w3.org/2000/svg">
<path d="M90.64 7.98C90.58 8.4 90.04 8.4 89.5 7.98C89.2 7.74 88.96 7.38 88.78 7.08L70.96 38.88C74.38 38.7 76.18 38.58 76.24 38.58C76.6 38.52 77.26 39 77.62 39.54C77.98 40.14 77.92 40.62 77.5 40.68C77.5 40.68 74.74 40.86 69.7 41.1L55.18 66.96C54.04 69.3 52.72 71.64 51.28 73.98C51.1 74.28 50.56 74.1 50.02 73.68C49.54 73.14 49.24 72.54 49.42 72.24C50.74 69.9 52 67.56 53.32 65.22C57.64 56.64 59.8 48.54 59.86 41.52C54.16 41.76 47.26 42 39.34 42.12L31.72 54.24C31.54 54.48 30.94 54.36 30.46 53.88C29.92 53.34 29.68 52.74 29.86 52.44L36.34 42.18C31.54 42.3 26.44 42.36 20.98 42.36C11.5 42.42 5.56 40.2 2.8 37.08C1.24 35.34 0.64 33.42 0.88 31.5C1.12 29.82 1.96 28.02 3.46 26.4C7.84 21.48 17.56 17.1 30.94 16.62C38.74 16.38 45.1 17.82 49.96 20.58L58.12 7.74C58.3 7.44 58.84 7.62 59.38 8.1C59.86 8.58 60.16 9.24 59.98 9.54L52.06 21.96C55 24.06 57.22 26.7 58.9 29.82C60.4 32.64 61.3 35.88 61.66 39.36C64.06 39.24 66.16 39.12 68.02 39.06L89.62 0.479997C89.74 0.179997 90.22 0.179997 90.7 0.599995C91.24 0.959998 91.66 1.62 91.6 2.04L90.64 7.98ZM51.34 23.1L40.66 40.02C48.1 39.84 54.52 39.6 59.8 39.42C59.56 35.76 58.72 32.46 57.22 29.64C55.84 27.06 53.92 24.84 51.34 23.1ZM37.66 40.08L49.18 21.84C44.86 19.62 39.22 18.48 32.2 18.72C19.06 19.2 9.52 23.46 5.26 28.26C3.88 29.82 3.04 31.44 2.86 32.94C2.68 34.2 2.98 35.4 3.76 36.3C5.86 38.7 10.96 40.32 19.78 40.32C26.2 40.26 32.2 40.2 37.66 40.08ZM60.7 52.08L66.76 41.28C65.26 41.34 63.58 41.4 61.78 41.46C61.9 44.76 61.54 48.36 60.7 52.08ZM91.525 43.44C91.765 44.04 91.585 44.4 91.105 44.28C90.625 44.16 90.025 43.62 89.785 43.08C88.585 41.94 85.645 43.32 84.565 44.22C82.345 46.02 81.085 48.18 80.425 50.94C82.525 50.34 87.985 43.98 87.985 43.98C88.225 43.74 88.765 43.92 89.305 44.46C89.725 44.94 89.965 45.48 89.785 45.78C89.665 46.08 88.945 47.64 89.305 49.32C89.545 50.76 97.345 44.22 97.465 44.16C97.705 43.92 98.185 43.62 98.665 44.1C99.145 44.64 99.085 45.12 98.845 45.36C94.885 48.9 92.545 51 90.925 51.84C88.165 53.28 86.065 52.44 86.125 49.5C83.965 51.54 81.745 53.4 80.425 52.8C79.945 52.62 79.585 52.26 79.225 51.9C78.625 51.12 78.385 50.28 78.505 49.38C78.565 48.66 78.805 47.88 79.165 47.1C79.945 45.42 81.325 43.56 82.885 42.3C85.585 40.08 90.505 39.96 91.525 43.44ZM99.1895 39.54C99.3095 39.24 99.9095 39.42 100.39 39.9C100.93 40.38 101.23 40.98 101.05 41.34L99.9695 43.2C101.83 41.4 103.63 39.9 104.77 39.48C108.49 38.22 107.89 42.3 106.69 45.96C106.87 45.84 107.11 45.72 107.29 45.66C107.83 45.42 108.31 45.24 108.73 45.24C109.69 45.18 110.47 45.66 111.01 46.8C111.31 47.46 111.31 48.48 110.83 49.86C110.77 49.98 117.25 44.64 117.31 44.64C117.55 44.4 118.09 43.74 118.57 44.28C119.11 44.76 119.05 45.12 118.81 45.36C118.75 45.42 104.41 60.54 108.91 48.18C108.97 47.94 109.03 47.76 109.09 47.52L108.85 47.64C107.23 48.48 105.13 50.22 104.71 50.94V51C104.53 51.36 103.99 51.24 103.45 50.76C102.91 50.28 102.67 49.62 102.79 49.32C102.79 49.26 106.45 41.46 106.27 41.52C103.03 42.66 94.3895 53.22 94.3295 53.28C94.1495 53.52 93.6095 53.34 93.1295 52.92C92.6495 52.44 92.3495 51.78 92.5295 51.48L99.1895 39.54ZM118.022 45.96C117.782 46.2 117.182 45.9 116.702 45.42C116.222 44.88 116.042 44.28 116.342 44.04C116.342 44.04 120.002 40.8 122.882 40.2C123.662 40.02 124.442 40.26 125.102 40.92C125.702 41.52 126.062 42.24 126.062 43.02C126.122 43.5 126.002 44.04 125.702 44.58C124.922 46.38 122.702 48.66 118.442 50.46L118.502 50.58C120.842 50.34 126.422 49.62 129.602 44.16C129.782 43.86 129.962 43.5 130.442 43.98C130.982 44.46 131.162 44.34 130.982 44.64C127.142 51.18 120.662 52.68 118.922 52.74C119.102 54.84 118.742 57.78 116.162 60.3C114.242 62.22 112.142 63.18 110.582 63.3C109.862 63.36 109.202 63.3 108.662 63C107.762 62.58 107.042 61.86 106.682 60.84C106.442 60.12 106.502 59.16 106.982 58.08C108.722 54.42 115.502 51.36 116.882 50.76C116.762 50.04 116.522 49.56 116.462 49.38C116.282 49.02 116.282 48.66 116.582 48.54C120.842 46.8 123.062 44.58 123.842 42.9C123.902 42.66 124.022 42.48 124.022 42.3C121.382 43.02 118.082 45.96 118.022 45.96ZM114.422 58.44C116.102 56.76 116.762 55.02 116.942 53.46C114.542 54.66 110.162 57.06 108.902 59.82C108.602 60.42 108.482 60.9 108.482 61.2C108.722 61.26 108.962 61.26 109.262 61.26C110.702 61.14 112.562 60.24 114.422 58.44ZM139.455 43.44C139.695 44.04 139.515 44.4 139.035 44.28C138.555 44.16 137.955 43.62 137.715 43.08C136.515 41.94 133.575 43.32 132.495 44.22C130.275 46.02 129.015 48.18 128.355 50.94C130.455 50.34 135.915 43.98 135.915 43.98C136.155 43.74 136.695 43.92 137.235 44.46C137.655 44.94 137.895 45.48 137.715 45.78C137.595 46.08 136.875 47.64 137.235 49.32C137.475 50.76 145.275 44.22 145.395 44.16C145.635 43.92 146.115 43.62 146.595 44.1C147.075 44.64 147.015 45.12 146.775 45.36C142.815 48.9 140.475 51 138.855 51.84C136.095 53.28 133.995 52.44 134.055 49.5C131.895 51.54 129.675 53.4 128.355 52.8C127.875 52.62 127.515 52.26 127.155 51.9C126.555 51.12 126.315 50.28 126.435 49.38C126.495 48.66 126.735 47.88 127.095 47.1C127.875 45.42 129.255 43.56 130.815 42.3C133.515 40.08 138.435 39.96 139.455 43.44Z" fill="#ffffff"/>
</svg>
